<!-- icon666.com - MILLIONS vector ICONS FREE --><svg version="1.1" id="Capa_1" xmlns="http://www.w3.org/2000/svg" xmlns:xlink="http://www.w3.org/1999/xlink" x="0px" y="0px" viewBox="0 0 512 512" style="enable-background:new 0 0 512 512;" xml:space="preserve"><path style="" d="M396.93,504.5V379.34l-28.331-28.331H143.402c-11.064,11.064-17.267,17.267-28.331,28.331V504.5 H396.93z" fill="#BDFDFF"></path><g><rect x="253.25" y="351.01" style="" width="45.49" height="45.49" fill="#44FFE8"></rect><polygon style="" points="298.742,504.5 253.251,504.5 261.698,396.754 290.296,396.754 " fill="#44FFE8"></polygon></g><path style="" d="M328.597,244.617v60.802c-17.804,17.804-27.785,27.785-45.589,45.589h-54.017 c-17.804-17.804-27.785-27.785-45.589-45.589v-60.802c0-40.094,32.503-72.597,72.597-72.597l0,0 C296.094,172.02,328.597,204.523,328.597,244.617L328.597,244.617z" fill="#FFDAAA"></path><path style="" d="M504.5,309.239V202.76h-76.872c-3.287-10.609-7.54-20.79-12.639-30.457l54.374-54.373L394.07,42.638 l-54.329,54.329c-9.667-5.099-19.893-9.307-30.502-12.594V7.5H202.761v76.872c-10.609,3.287-20.79,7.54-30.457,12.639L117.93,42.638 L42.638,117.93l54.374,54.373c-5.099,9.667-9.352,19.848-12.639,30.457H7.5v106.479h76.872c3.287,10.609,7.54,20.79,12.639,30.457 L42.638,394.07l72.432,72.433V379.34c11.064-11.064,17.267-17.267,28.331-28.331h79.625c-39.334-13.649-67.574-51.028-67.574-95.009 c0-55.531,45.016-100.547,100.547-100.547S356.547,200.469,356.547,256c0,43.98-28.24,81.359-67.574,95.009h79.625l28.331,28.331 v87.162l72.432-72.432l-54.374-54.374c5.099-9.667,9.352-19.848,12.639-30.457H504.5z" fill="#FF7956"></path><g><rect x="233.25" y="351.01" style="" width="45.49" height="45.49" fill="#FFB655"></rect><polygon style="" points="278.742,504.5 233.251,504.5 241.698,396.754 270.296,396.754 " fill="#FFB655"></polygon></g><path style="" d="M173.402,351.009h-30L115.07,379.34V504.5h30V379.34 C156.135,368.276,162.338,362.073,173.402,351.009z" fill="#44FFE8"></path><path style="" d="M213.403,305.42v-60.802c0-34.952,24.7-64.135,57.597-71.046c-4.84-1.017-9.858-1.552-15-1.552l0,0 c-40.094,0-72.597,32.503-72.597,72.597v60.802c17.804,17.804,27.785,27.785,45.589,45.589h30 C241.188,333.205,231.206,323.223,213.403,305.42z" fill="#FF9478"></path><g><path style="" d="M84.372,202.76h30c3.287-10.609,7.54-20.79,12.639-30.457L72.638,117.93l60.292-60.292l-15-15 L42.638,117.93l54.374,54.373C91.912,181.97,87.66,192.152,84.372,202.76z" fill="#FF3F62"></path><rect x="7.5" y="202.76" style="" width="30" height="106.48" fill="#FF3F62"></rect><path style="" d="M202.304,97.012c9.666-5.099,19.848-9.352,30.457-12.639V7.5h-30v76.872 c-3.295,1.021-6.548,2.135-9.757,3.339L202.304,97.012z" fill="#FF3F62"></path><path style="" d="M369.741,96.967l39.329-39.329l-15-15l-45.063,45.063C356.146,90.359,363.076,93.451,369.741,96.967 z" fill="#FF3F62"></path><path style="" d="M72.638,394.07l54.374-54.374c-5.099-9.667-9.352-19.848-12.639-30.457h-30 c3.287,10.609,7.54,20.79,12.639,30.457L42.638,394.07l72.432,72.433v-30L72.638,394.07z" fill="#FF3F62"></path><polygon style="" points="426.93,436.502 426.93,379.34 398.598,351.009 368.598,351.009 396.93,379.34 396.93,466.502 " fill="#FF3F62"></polygon><path style="" d="M386.547,256c0-55.531-45.016-100.547-100.547-100.547c-5.098,0-10.106,0.38-15,1.112 c48.416,7.242,85.547,49.002,85.547,99.435c0,43.98-28.24,81.359-67.574,95.009h30C358.307,337.359,386.547,299.98,386.547,256z" fill="#FF3F62"></path></g><g><rect x="233.25" y="351.01" style="" width="20" height="45.49" fill="#FF7956"></rect><polygon style="" points="241.698,396.754 233.251,504.5 253.251,504.5 261.698,396.754 " fill="#FF7956"></polygon></g><rect x="227.76" y="25" width="56.48" height="15" fill="#000000" style="fill: rgb(0, 0, 0);"></rect><rect x="25" y="227.76" width="15" height="56.48" fill="#000000" style="fill: rgb(0, 0, 0);"></rect><rect x="472" y="273.38" width="15" height="15" fill="#000000" style="fill: rgb(0, 0, 0);"></rect><rect x="472" y="223.38" width="15" height="15" fill="#000000" style="fill: rgb(0, 0, 0);"></rect><rect x="472" y="248.38" width="15" height="15" fill="#000000" style="fill: rgb(0, 0, 0);"></rect><rect x="132.57" y="444.55" width="15" height="15" fill="#000000" style="fill: rgb(0, 0, 0);"></rect><rect x="132.57" y="469.55" width="15" height="15" fill="#000000" style="fill: rgb(0, 0, 0);"></rect><rect x="132.57" y="419.55" width="15" height="15" fill="#000000" style="fill: rgb(0, 0, 0);"></rect><g><path style="" d="M279.347,140.271c4.591,0.924,9.174,2.139,13.622,3.609l4.709-14.242 c-5.02-1.659-10.19-3.029-15.37-4.072L279.347,140.271z" fill="#FFFFFF"></path><path style="" d="M301.77,147.187c43.908,18.542,72.278,61.254,72.277,108.813h15 c0.001-53.603-31.967-101.739-81.441-122.632L301.77,147.187z" fill="#FFFFFF"></path><path style="" d="M270.071,138.786l1.775-14.895c-5.223-0.623-10.555-0.938-15.847-0.938v15 C260.701,137.953,265.436,138.233,270.071,138.786z" fill="#FFFFFF"></path></g><path d="M153.954,170.713l11.504,9.626c3.005-3.591,6.26-7.042,9.675-10.257l-10.283-10.921 C161.004,162.782,157.339,166.669,153.954,170.713z" fill="#000000" style="fill: rgb(0, 0, 0);"></path><path d="M123.597,242.868l14.928,1.471c0.46-4.667,1.206-9.346,2.217-13.909l-14.645-3.245 C124.956,232.33,124.115,237.606,123.597,242.868z" fill="#000000" style="fill: rgb(0, 0, 0);"></path><path d="M139.07,192.566l13.174,7.173c2.238-4.11,4.75-8.132,7.467-11.954l-12.227-8.69 C144.424,183.401,141.593,187.934,139.07,192.566z" fill="#000000" style="fill: rgb(0, 0, 0);"></path><path d="M128.802,216.941l14.338,4.41c1.375-4.471,3.038-8.908,4.943-13.188l-13.705-6.099 C132.229,206.892,130.354,211.897,128.802,216.941z" fill="#000000" style="fill: rgb(0, 0, 0);"></path><g><polygon style="" points="394.07,88.6 428.702,123.233 439.31,112.626 394.07,67.387 377.833,83.624 388.44,94.23 " fill="#FFFFFF"></polygon><rect x="345.608" y="111.476" transform="matrix(0.7071 0.7071 -0.7071 0.7071 187.5519 -214.8376)" style="" width="15" height="15" fill="#FFFFFF"></rect><rect x="363.285" y="93.796" transform="matrix(0.7071 0.7071 -0.7071 0.7071 180.2277 -232.5155)" style="" width="15" height="15" fill="#FFFFFF"></rect></g><path d="M301.114,343.509l34.983-34.983v-63.909c0-44.166-35.932-80.097-80.098-80.097s-80.098,35.932-80.098,80.097v63.909 l34.983,34.983h-70.591l-32.725,32.724V512H404.43V376.233l-32.725-32.725h-70.591V343.509z M271.242,389h-30.491v-30.491h30.491 V389z M190.902,244.617c0-35.895,29.203-65.097,65.098-65.097s65.098,29.203,65.098,65.098v57.695l-41.196,41.196h-47.803 l-41.196-41.196L190.902,244.617L190.902,244.617z M184.463,497v-82.51h-15V497H122.57V382.446l23.938-23.938h79.243V404h7.857 l-7.292,93H184.463z M241.362,497l7.271-92.746h14.728l7.27,92.746H241.362z M389.43,497h-46.893v-82.51h-15V497h-41.859l-7.29-93 h7.855v-45.491h79.25l23.938,23.938L389.43,497L389.43,497z" fill="#000000" style="fill: rgb(0, 0, 0);"></path><g><path style="" d="M296.098,244.617v50.447h15v-50.447c0-9.616-2.526-19.09-7.307-27.399l-13.002,7.479 C294.262,230.734,296.098,237.623,296.098,244.617z" fill="#FFFFFF"></path><path style="" d="M273.08,192.23c-5.503-1.798-11.25-2.71-17.08-2.71v15c4.245,0,8.425,0.662,12.422,1.968 L273.08,192.23z" fill="#FFFFFF"></path><path style="" d="M285.854,217.881l11.168-10.014c-3.877-4.325-8.384-7.995-13.394-10.909l-7.541,12.966 C279.739,212.049,283.025,214.726,285.854,217.881z" fill="#FFFFFF"></path><rect x="364.43" y="444" style="" width="15" height="41" fill="#FFFFFF"></rect><rect x="364.43" y="394" style="" width="15" height="15" fill="#FFFFFF"></rect><rect x="364.43" y="419" style="" width="15" height="15" fill="#FFFFFF"></rect></g><rect x="156.5" y="368.51" width="53.43" height="15" fill="#000000" style="fill: rgb(0, 0, 0);"></rect><path d="M512,316.739V195.261h-78.933c-2.515-7.32-5.502-14.518-8.926-21.503l55.827-55.827l-85.898-85.9l-55.786,55.786 c-6.913-3.376-14.125-6.352-21.545-8.888V0H195.261v78.933c-7.317,2.513-14.517,5.501-21.503,8.926L117.93,32.031L32.031,117.93 l55.827,55.827c-3.425,6.988-6.412,14.186-8.926,21.503H0v121.479h78.933c2.514,7.317,5.502,14.517,8.926,21.503L32.031,394.07 l57.735,57.736l10.607-10.606l-47.13-47.129l52.981-52.981l-2.58-4.892c-4.935-9.353-9.009-19.169-12.109-29.177l-1.636-5.28H15 v-91.479h74.9l1.636-5.28c3.101-10.007,7.175-19.824,12.109-29.177l2.58-4.892L53.244,117.93l64.686-64.686l52.981,52.982 l4.892-2.581c9.353-4.934,19.169-9.008,29.178-12.109l5.28-1.636V15h91.479v74.9l5.28,1.636 c10.216,3.165,20.048,7.224,29.223,12.064l4.892,2.58l52.937-52.937l64.686,64.686l-52.981,52.981l2.58,4.892 c4.933,9.349,9.007,19.166,12.109,29.178l1.637,5.28H497v91.479h-74.899l-1.637,5.28c-3.104,10.013-7.178,19.83-12.109,29.178 l-2.58,4.892l52.981,52.981l-47.13,47.129l10.607,10.606l57.735-57.736l-55.827-55.827c3.423-6.985,6.411-14.184,8.926-21.503 L512,316.739L512,316.739z" fill="#000000" style="fill: rgb(0, 0, 0);"></path><path d="M147.953,256c0,14.622,2.875,28.807,8.545,42.161l13.807-5.862c-4.878-11.489-7.352-23.702-7.352-36.298 c0-51.306,41.74-93.047,93.047-93.047s93.047,41.741,93.047,93.047c0,12.596-2.474,24.809-7.352,36.298l13.807,5.862 c5.67-13.354,8.545-27.539,8.545-42.161c0-59.577-48.47-108.047-108.047-108.047S147.953,196.423,147.953,256z" fill="#000000" style="fill: rgb(0, 0, 0);"></path></svg>