<!-- icon666.com - MILLIONS vector ICONS FREE --><svg xmlns="http://www.w3.org/2000/svg" viewBox="0 0 64 64"><g id="coin-blockchain-money-business-currency"><path d="M34,33H31v2h3a1,1,0,0,0,0-2Z"></path><path d="M34,29H31v2h3a1,1,0,0,0,0-2Z"></path><path d="M62,27V9a1,1,0,0,0-.41-.79l.01-.01-8-6A.984.984,0,0,0,53,2H37a1,1,0,0,0-1,1V13.43a18.82,18.82,0,0,0-8,0V9a1,1,0,0,0-.41-.79l.01-.01-8-6A.984.984,0,0,0,19,2H3A1,1,0,0,0,2,3V19a.984.984,0,0,0,.2.6l6,8,.01-.01A1,1,0,0,0,9,28h4.43a18.82,18.82,0,0,0,0,8H3a1,1,0,0,0-1,1V53a.984.984,0,0,0,.2.6l6,8,.01-.01A1,1,0,0,0,9,62H27a1,1,0,0,0,1-1V50.57a18.82,18.82,0,0,0,8,0V53a.984.984,0,0,0,.2.6l6,8,.01-.01A1,1,0,0,0,43,62H61a1,1,0,0,0,1-1V43a1,1,0,0,0-.41-.79l.01-.01-8-6A.984.984,0,0,0,53,36H50.57a18.82,18.82,0,0,0,0-8H61A1,1,0,0,0,62,27ZM38,5.41l4,4v6.46a19,19,0,0,0-4-1.88ZM8,24,4,18.67V5.41l4,4ZM9.41,8l-4-4H18.67L24,8ZM8,58,4,52.67V39.41l4,4ZM9.41,42l-4-4h8.58a19,19,0,0,0,1.88,4ZM42,58l-4-5.33V50.01a19,19,0,0,0,4-1.88ZM32,49A17,17,0,1,1,49,32,17.024,17.024,0,0,1,32,49ZM52.67,38,58,42H48.13a19,19,0,0,0,1.88-4ZM43.41,8l-4-4H52.67L58,8Z"></path><path d="M32,17A15,15,0,1,0,47,32,15.018,15.018,0,0,0,32,17Zm5,17a3.01,3.01,0,0,1-2,2.82l-.02,2.15-2-.01L32.99,37h-2l-.01,1.97-2-.01L28.99,37H27V35h2V29H27V27h1.99L29,24.99l2,.02L30.99,27h2L33,24.99l2,.02-.01,2.17A2.973,2.973,0,0,1,36.22,32,2.974,2.974,0,0,1,37,34Z"></path></g></svg>