<?xml version="1.0" encoding="utf-8"?>
<!-- Generator: Adobe Illustrator 24.0.2, SVG Export Plug-In . SVG Version: 6.00 Build 0)  -->
<svg version="1.1" id="Warstwa_1" xmlns="http://www.w3.org/2000/svg" xmlns:xlink="http://www.w3.org/1999/xlink" x="0px" y="0px"
	 viewBox="0 0 430 430" style="enable-background:new 0 0 430 430;" xml:space="preserve">
<style type="text/css">
	.st0{fill:#4BB3FD;}
	.st1{opacity:0.5;}
	.st2{opacity:0;}
	.st3{fill:#121331;}
	.st4{fill:#3A3347;}
	.st5{fill:#F28BA8;}
	.st6{fill:#FFC738;}
	.st7{fill:#ebe6ef;}
	.st8{fill:#2CA58D;}
	.st9{fill:#F24C00;}
	.st10{fill:#F9C9C0;}
	.st11{fill:#646E78;}
	.st12{opacity:0.4;}
	.st13{fill:#B26836;}
	.st14{opacity:0.8;}
</style>
<g>
	<g>
		<path class="st7" d="M382.85,215c0,92.7-75.15,167.85-167.85,167.85S47.15,307.7,47.15,215S122.3,47.15,215,47.15
			S382.85,122.3,382.85,215z"/>
	</g>
	<g class="st1">
		<path class="st7" d="M306.32,355.86c-26.29,17.07-57.64,26.99-91.32,26.99c-92.7,0-167.85-75.14-167.85-167.85
			c0-72.93,46.5-134.99,111.47-158.14c-46.08,29.92-76.55,81.83-76.55,140.86c0,92.7,75.15,167.85,167.86,167.85
			C269.72,365.57,288.7,362.14,306.32,355.86z"/>
	</g>
</g>
<g>
	<g>
		<path class="st8" d="M214.99,220.88c-2.76,0-5-2.24-5-5v-84.81c0-2.76,2.24-5,5-5s5,2.24,5,5v84.81
			C219.99,218.64,217.75,220.88,214.99,220.88z"/>
	</g>
	<g>
		<path class="st8" d="M214.99,303.92c-2.76,0-5-2.24-5-5v-85c0-2.76,2.24-5,5-5s5,2.24,5,5v85
			C219.99,301.69,217.75,303.92,214.99,303.92z"/>
	</g>
	<g>
		<path class="st8" d="M298.91,220h-85.12c-2.76,0-5-2.24-5-5s2.24-5,5-5h85.12c2.76,0,5,2.24,5,5S301.67,220,298.91,220z"/>
	</g>
	<g>
		<path class="st8" d="M216.05,220h-84.98c-2.76,0-5-2.24-5-5s2.24-5,5-5h84.98c2.76,0,5,2.24,5,5S218.81,220,216.05,220z"/>
	</g>
</g>
</svg>
